<?xml version="1.0" encoding="UTF-8" standalone="no"?>
<!DOCTYPE svg PUBLIC "-//W3C//DTD SVG 1.1//EN" "http://www.w3.org/Graphics/SVG/1.1/DTD/svg11.dtd">
<svg width="100%" height="100%" viewBox="0 0 300 400" version="1.1" xmlns="http://www.w3.org/2000/svg" xmlns:xlink="http://www.w3.org/1999/xlink" xml:space="preserve" xmlns:serif="http://www.serif.com/" style="fill-rule:evenodd;clip-rule:evenodd;">
    <g transform="matrix(1,0,0,-1,10.642,252.594)">
        <g>
            <path d="M112.32,75.361L111.897,74.516L75,148.309L0.845,0L0,0L75,150L112.32,75.361Z" style="stroke:#fff;stroke-width:2px;"/>
        </g>
    </g>
    <g transform="matrix(1,0,0,-1,84.3862,252.705)">
        <g>
            <path d="M37.783,75.472L100.117,199.982L137.514,125.282L137.09,124.437L100.117,198.291L38.206,74.625L37.783,75.472Z" style="stroke:#fff;stroke-width:2px;"/>
        </g>
    </g>
    <g transform="matrix(1,0,0,-1,158.848,253.594)">
        <g>
            <path d="M62.668,125.172L124.924,249.521L125.252,248.867L62.996,124.518L62.668,125.172Z" style="stroke:#fff;stroke-width:2px;"/>
        </g>
    </g>
    <g transform="matrix(1,0,0,1,-36,-36.1605)">
        <g>
            <g transform="matrix(1,0,0,1,41.462,364.408)">
                <g transform="matrix(88.278,0,0,88.278,0,0)">
                    <path d="M0.085,-0L0.085,-0.705L0.233,-0.705L0.233,-0.122L0.546,-0.122L0.546,-0L0.085,-0Z" style="fill:#fff;fill-rule:nonzero;"/>
                </g>
            </g>
            <g transform="matrix(1,0,0,1,89.542,364.408)">
                <g transform="matrix(88.278,0,0,88.278,0,0)">
                    <path d="M0.085,-0L0.085,-0.705L0.552,-0.705L0.552,-0.583L0.233,-0.583L0.233,-0.413L0.534,-0.413L0.534,-0.3L0.233,-0.3L0.233,-0.122L0.552,-0.122L0.552,-0L0.085,-0Z" style="fill:#fff;fill-rule:nonzero;"/>
                </g>
                <g transform="matrix(88.278,0,0,88.278,48.7512,0)">
                    <path d="M0.085,-0L0.085,-0.705L0.363,-0.705C0.433,-0.705 0.492,-0.691 0.541,-0.664C0.591,-0.637 0.628,-0.597 0.654,-0.545C0.68,-0.494 0.693,-0.431 0.693,-0.357L0.693,-0.356C0.693,-0.281 0.68,-0.216 0.654,-0.163C0.629,-0.11 0.591,-0.069 0.542,-0.042C0.493,-0.014 0.433,-0 0.363,-0L0.085,-0ZM0.233,-0.122L0.339,-0.122C0.383,-0.122 0.42,-0.13 0.45,-0.148C0.48,-0.166 0.503,-0.192 0.519,-0.227C0.535,-0.262 0.543,-0.304 0.543,-0.354L0.543,-0.355C0.543,-0.403 0.535,-0.444 0.519,-0.479C0.502,-0.513 0.479,-0.538 0.449,-0.556C0.418,-0.574 0.382,-0.583 0.339,-0.583L0.233,-0.583L0.233,-0.122Z" style="fill:#fff;fill-rule:nonzero;"/>
                </g>
                <g transform="matrix(88.278,0,0,88.278,108.666,0)">
                    <path d="M0.392,0.018C0.339,0.018 0.292,0.01 0.251,-0.007C0.209,-0.024 0.174,-0.049 0.145,-0.081C0.115,-0.113 0.093,-0.152 0.078,-0.198C0.062,-0.244 0.054,-0.295 0.054,-0.352L0.054,-0.353C0.054,-0.429 0.068,-0.494 0.095,-0.549C0.122,-0.605 0.161,-0.647 0.211,-0.677C0.261,-0.708 0.32,-0.723 0.389,-0.723C0.444,-0.723 0.494,-0.713 0.538,-0.693C0.582,-0.673 0.618,-0.645 0.646,-0.61C0.673,-0.574 0.691,-0.533 0.698,-0.486L0.698,-0.481L0.552,-0.481L0.551,-0.486C0.541,-0.521 0.522,-0.549 0.493,-0.568C0.465,-0.588 0.43,-0.598 0.389,-0.598C0.351,-0.598 0.318,-0.588 0.291,-0.568C0.263,-0.548 0.242,-0.52 0.227,-0.484C0.212,-0.448 0.205,-0.405 0.205,-0.355L0.205,-0.354C0.205,-0.316 0.209,-0.281 0.218,-0.251C0.227,-0.221 0.239,-0.195 0.256,-0.173C0.272,-0.152 0.292,-0.135 0.316,-0.124C0.339,-0.113 0.365,-0.107 0.395,-0.107C0.427,-0.107 0.455,-0.113 0.48,-0.125C0.505,-0.138 0.524,-0.155 0.538,-0.177C0.552,-0.199 0.56,-0.225 0.561,-0.255L0.561,-0.268L0.408,-0.268L0.408,-0.375L0.705,-0.375L0.705,-0.286C0.705,-0.239 0.697,-0.197 0.683,-0.16C0.669,-0.122 0.648,-0.09 0.62,-0.064C0.593,-0.037 0.56,-0.017 0.522,-0.003C0.483,0.011 0.44,0.018 0.392,0.018Z" style="fill:#fff;fill-rule:nonzero;"/>
                </g>
                <g transform="matrix(88.278,0,0,88.278,171.039,0)">
                    <path d="M0.085,-0L0.085,-0.705L0.552,-0.705L0.552,-0.583L0.233,-0.583L0.233,-0.413L0.534,-0.413L0.534,-0.3L0.233,-0.3L0.233,-0.122L0.552,-0.122L0.552,-0L0.085,-0Z" style="fill:#fff;fill-rule:nonzero;"/>
                </g>
            </g>
        </g>
        <g transform="matrix(1,0,0,1,43.219,415.331)">
            <g transform="matrix(58,0,0,58,0,0)">
                <path d="M0.124,-0.266L0.124,-0.325L0.325,-0.325C0.379,-0.325 0.422,-0.339 0.453,-0.368C0.483,-0.396 0.499,-0.435 0.499,-0.485L0.499,-0.486C0.499,-0.536 0.483,-0.575 0.453,-0.603C0.422,-0.631 0.379,-0.645 0.325,-0.645L0.124,-0.645L0.124,-0.705L0.34,-0.705C0.385,-0.705 0.424,-0.696 0.458,-0.677C0.492,-0.659 0.519,-0.634 0.538,-0.601C0.557,-0.568 0.566,-0.53 0.566,-0.486L0.566,-0.485C0.566,-0.442 0.557,-0.403 0.538,-0.37C0.519,-0.337 0.492,-0.312 0.458,-0.293C0.424,-0.275 0.385,-0.266 0.34,-0.266L0.124,-0.266ZM0.09,-0L0.09,-0.705L0.157,-0.705L0.157,-0L0.09,-0Z" style="fill:#fff;fill-rule:nonzero;"/>
            </g>
        </g>
        <g>
            <g transform="matrix(1,0,0,1,72.416,415.331)">
                <g transform="matrix(58,0,0,58,0,0)">
                    <path d="M0.036,-0L0.3,-0.705L0.351,-0.705L0.351,-0.617L0.33,-0.617L0.106,-0L0.036,-0ZM0.15,-0.216L0.171,-0.273L0.496,-0.273L0.516,-0.216L0.15,-0.216ZM0.559,-0L0.336,-0.617L0.336,-0.705L0.366,-0.705L0.629,-0L0.559,-0Z" style="fill:#fff;fill-rule:nonzero;"/>
                </g>
            </g>
            <g transform="matrix(1,0,0,1,108.597,415.331)">
                <g transform="matrix(58,0,0,58,0,0)">
                    <path d="M0.09,-0L0.09,-0.705L0.342,-0.705C0.388,-0.705 0.428,-0.696 0.462,-0.679C0.495,-0.662 0.522,-0.639 0.54,-0.608C0.558,-0.577 0.568,-0.541 0.568,-0.499L0.568,-0.498C0.568,-0.448 0.554,-0.406 0.528,-0.371C0.501,-0.336 0.464,-0.312 0.417,-0.299L0.588,-0L0.51,-0L0.348,-0.289L0.334,-0.288L0.157,-0.288L0.157,-0L0.09,-0ZM0.157,-0.348L0.337,-0.348C0.388,-0.348 0.428,-0.361 0.457,-0.387C0.485,-0.413 0.499,-0.449 0.499,-0.496L0.499,-0.497C0.499,-0.543 0.485,-0.579 0.455,-0.606C0.426,-0.632 0.386,-0.645 0.334,-0.645L0.157,-0.645L0.157,-0.348Z" style="fill:#fff;fill-rule:nonzero;"/>
                </g>
                <g transform="matrix(58,0,0,58,34.749,0)">
                    <path d="M0.279,-0L0.279,-0.645L0.043,-0.645L0.043,-0.705L0.582,-0.705L0.582,-0.645L0.346,-0.645L0.346,-0L0.279,-0Z" style="fill:#fff;fill-rule:nonzero;"/>
                </g>
                <g transform="matrix(58,0,0,58,68.4502,0)">
                    <path d="M0.09,-0L0.09,-0.705L0.156,-0.705L0.584,-0.095L0.538,-0.119L0.573,-0.119L0.573,-0.705L0.639,-0.705L0.639,-0L0.575,-0L0.145,-0.61L0.191,-0.586L0.156,-0.586L0.156,-0L0.09,-0Z" style="fill:#fff;fill-rule:nonzero;"/>
                </g>
                <g transform="matrix(58,0,0,58,109.005,0)">
                    <path d="M0.09,-0L0.09,-0.705L0.516,-0.705L0.516,-0.645L0.157,-0.645L0.157,-0.39L0.498,-0.39L0.498,-0.331L0.157,-0.331L0.157,-0.06L0.516,-0.06L0.516,-0L0.09,-0Z" style="fill:#fff;fill-rule:nonzero;"/>
                </g>
                <g transform="matrix(58,0,0,58,141.035,0)">
                    <path d="M0.09,-0L0.09,-0.705L0.342,-0.705C0.388,-0.705 0.428,-0.696 0.462,-0.679C0.495,-0.662 0.522,-0.639 0.54,-0.608C0.558,-0.577 0.568,-0.541 0.568,-0.499L0.568,-0.498C0.568,-0.448 0.554,-0.406 0.528,-0.371C0.501,-0.336 0.464,-0.312 0.417,-0.299L0.588,-0L0.51,-0L0.348,-0.289L0.334,-0.288L0.157,-0.288L0.157,-0L0.09,-0ZM0.157,-0.348L0.337,-0.348C0.388,-0.348 0.428,-0.361 0.457,-0.387C0.485,-0.413 0.499,-0.449 0.499,-0.496L0.499,-0.497C0.499,-0.543 0.485,-0.579 0.455,-0.606C0.426,-0.632 0.386,-0.645 0.334,-0.645L0.157,-0.645L0.157,-0.348Z" style="fill:#fff;fill-rule:nonzero;"/>
                </g>
                <g transform="matrix(58,0,0,58,175.784,0)">
                    <path d="M0.317,0.014C0.267,0.014 0.224,0.006 0.186,-0.01C0.148,-0.027 0.118,-0.05 0.096,-0.079C0.073,-0.108 0.06,-0.141 0.057,-0.178L0.056,-0.184L0.123,-0.184L0.123,-0.178C0.126,-0.152 0.136,-0.13 0.153,-0.11C0.171,-0.09 0.194,-0.075 0.223,-0.064C0.252,-0.052 0.284,-0.047 0.32,-0.047C0.356,-0.047 0.387,-0.053 0.415,-0.065C0.442,-0.077 0.463,-0.093 0.479,-0.114C0.495,-0.134 0.503,-0.158 0.503,-0.184L0.503,-0.185C0.503,-0.217 0.49,-0.245 0.466,-0.267C0.442,-0.289 0.402,-0.307 0.348,-0.319L0.275,-0.335C0.205,-0.352 0.153,-0.375 0.122,-0.406C0.09,-0.436 0.074,-0.476 0.074,-0.524L0.074,-0.525C0.074,-0.562 0.085,-0.595 0.105,-0.625C0.126,-0.654 0.154,-0.677 0.19,-0.694C0.226,-0.711 0.268,-0.719 0.315,-0.719C0.361,-0.719 0.401,-0.711 0.437,-0.695C0.472,-0.679 0.5,-0.657 0.521,-0.63C0.542,-0.602 0.554,-0.572 0.556,-0.538L0.557,-0.532L0.491,-0.532L0.49,-0.538C0.487,-0.56 0.477,-0.581 0.462,-0.599C0.447,-0.617 0.426,-0.631 0.401,-0.642C0.376,-0.653 0.346,-0.658 0.313,-0.658C0.281,-0.658 0.251,-0.652 0.226,-0.641C0.2,-0.63 0.179,-0.615 0.164,-0.595C0.149,-0.576 0.142,-0.553 0.142,-0.527L0.142,-0.526C0.142,-0.495 0.153,-0.469 0.177,-0.449C0.2,-0.428 0.239,-0.412 0.292,-0.4L0.364,-0.383C0.413,-0.372 0.453,-0.358 0.483,-0.341C0.513,-0.324 0.535,-0.303 0.549,-0.279C0.563,-0.254 0.57,-0.226 0.57,-0.193L0.57,-0.192C0.57,-0.151 0.56,-0.115 0.539,-0.084C0.517,-0.053 0.488,-0.029 0.45,-0.011C0.412,0.006 0.367,0.014 0.317,0.014Z" style="fill:#fff;fill-rule:nonzero;"/>
                </g>
            </g>
        </g>
    </g>
</svg>
