<?xml version="1.0" encoding="UTF-8" standalone="no"?>
<!DOCTYPE svg PUBLIC "-//W3C//DTD SVG 1.1//EN" "http://www.w3.org/Graphics/SVG/1.1/DTD/svg11.dtd">
<svg width="100%" height="100%" viewBox="0 0 300 400" version="1.1" xmlns="http://www.w3.org/2000/svg" xmlns:xlink="http://www.w3.org/1999/xlink" xml:space="preserve" xmlns:serif="http://www.serif.com/" style="fill-rule:evenodd;clip-rule:evenodd;">
    <g transform="matrix(1,0,0,-1,10.642,252.594)">
        <clipPath id="_clip1">
            <rect x="-2.618" y="-2" width="155.236" height="155.236" clip-rule="nonzero"/>
        </clipPath>
        <g clip-path="url(#_clip1)">
            <path d="M112.32,75.361L111.897,74.516L75,148.309L0.845,0L0,0L75,150L112.32,75.361Z" style="fill:none;stroke:black;stroke-width:2px;"/>
        </g>
    </g>
    <g transform="matrix(1,0,0,-1,84.3862,252.705)">
        <clipPath id="_clip2">
            <rect x="-2.619" y="-2" width="205.472" height="205.216" clip-rule="nonzero"/>
        </clipPath>
        <g clip-path="url(#_clip2)">
            <path d="M37.783,75.472L100.117,199.982L137.514,125.282L137.09,124.437L100.117,198.291L38.206,74.625L37.783,75.472Z" style="fill:none;stroke:black;stroke-width:2px;"/>
        </g>
    </g>
    <g transform="matrix(1,0,0,-1,158.848,253.594)">
        <clipPath id="_clip3">
            <rect x="-2.619" y="-2" width="255.087" height="254.755" clip-rule="nonzero"/>
        </clipPath>
        <g clip-path="url(#_clip3)">
            <path d="M62.668,125.172L124.924,249.521L125.252,248.867L62.996,124.518L62.668,125.172Z" style="fill:none;stroke:black;stroke-width:2px;"/>
        </g>
    </g>
    <g transform="matrix(1,0,0,1,-36,-36.1605)">
        <text x="41.462px" y="364.408px" style="font-family:'SFPro-Bold', 'SF Pro';font-size:88.278px;">L<tspan x="89.542px 140.078px 201.779px 265.936px " y="364.408px 364.408px 364.408px 364.408px ">EDGE</tspan></text>
        <text x="43.219px" y="415.331px" style="font-family:'SFPro-Light', 'SF Pro';font-size:58px;">P</text>
        <text x="72.416px" y="415.331px" style="font-family:'SFPro-Light', 'SF Pro';font-size:58px;">A<tspan x="108.597px 142.683px 175.721px 215.612px 246.979px 281.065px " y="415.331px 415.331px 415.331px 415.331px 415.331px 415.331px ">RTNERS</tspan></text>
    </g>
</svg>
